# xmcd
#
# Track frame offsets: 
#        150
#        10807
#        20748
#        31057
#        41625
#        50159
#        59468
#        68273
#        79424
#        88708
#        97640
#        106301
#        117559
#        126059
#        134935
#        146608
#        154824
#
# Disc length: 2172 seconds
#
# Revision: 0
# Processed by: cddbd v1.5.2PL0 Copyright (c) Steve Scherf et al.
# Submitted via: ExactAudioCopy v1.1
#
DISCID=e9087a11
DTITLE=Kentucky Colonels, The - The New Sound Of Bluegrass America
DYEAR=1963
DGENRE=Bluegrass
TTITLE0=Three Finger Blues
TTITLE1=I'll Be Coming Home Tomorrow
TTITLE2=If You're Ever Gonna Love Me
TTITLE3=Banjo Picking Fever
TTITLE4=I Might Take You Back Again
TTITLE5=Memphis Special
TTITLE6=Cabin In The Sky
TTITLE7=Leroy's Ramble
TTITLE8=Howdy Hoss
TTITLE9=Won't You Call Me Darling
TTITLE10=Rainbow Shining Somewhere
TTITLE11=420 Special
TTITLE12=Just Joshing
TTITLE13=To Prove My Love For You
TTITLE14=Just Like Old Times
TTITLE15=Buck's Run
TTITLE16=I Hear Him Calling
EXTD=
EXTT0=
EXTT1=
EXTT2=
EXTT3=
EXTT4=
EXTT5=
EXTT6=
EXTT7=
EXTT8=
EXTT9=
EXTT10=
EXTT11=
EXTT12=
EXTT13=
EXTT14=
EXTT15=
EXTT16=
PLAYORDER=
